<?xml version="1.0" encoding="UTF-8" standalone="no" ?>
<!DOCTYPE svg PUBLIC "-//W3C//DTD SVG 1.1//EN" "http://www.w3.org/Graphics/SVG/1.1/DTD/svg11.dtd">
<svg xmlns="http://www.w3.org/2000/svg" xmlns:xlink="http://www.w3.org/1999/xlink" version="1.1" width="500" height="500" viewBox="0 0 500 500" xml:space="preserve">
<desc>Created with Fabric.js 5.3.0</desc>
<defs>
</defs>
<g transform="matrix(9.8297056988 0 0 10.1346866569 249.893020595 249.893020595)" id="1sJoutvXAjlebp0qDUELr"  >
<path style="stroke: rgb(0,0,0); stroke-width: 0; stroke-dasharray: none; stroke-linecap: butt; stroke-dashoffset: 0; stroke-linejoin: miter; stroke-miterlimit: 4; fill: rgb(53,255,138); fill-rule: nonzero; opacity: 1;"  transform=" translate(0, 0)" d="M -25.04745 -7.78036 L 0.2379599999999975 -24.65009 L 24.91491 -7.780359999999998 L 0.2379599999999975 9.34495 z M -15.58157 -7.78036 L -12.130669999999999 -5.58803 L -0.09063999999999872 -12.9353 L 11.934500000000002 -5.88911 L 15.45184 -7.78036 L -0.09063999999999872 -17.58803 z M -9.04285 -3.23118 L -6.469899999999999 -1.1986600000000003 L -0.04315999999999942 -4.95435 L 6.444710000000001 -1.1986599999999998 L 9.091750000000001 -3.2311799999999997 L -0.04315999999999853 -9.057739999999999 z M -25.41489 7.80344 L -22.61412 5.93159 L -0.15259999999999962 20.961109999999998 L 22.59826 5.931589999999998 L 25.32858 7.803439999999998 L -0.15259999999999962 24.65009 z M -25.32857 0.39036 L -22.5278 -1.48149 L -0.066279999999999 13.54803 L 22.68458 -1.481489999999999 L 25.4149 0.39036000000000093 L -0.066279999999999 17.23701 z" stroke-linecap="round" />
</g>
</svg>